<svg width="313" height="129" viewBox="0 0 313 129" fill="none" xmlns="http://www.w3.org/2000/svg">
<g filter="url(#filter0_d)">
<path d="M113.766 2.42426L8.2401 107.879L4.90453 119.394L16.4274 116.061L121.952 10.6061L113.766 2.42426Z" stroke="black"/>
<path d="M113.766 2.42424L117.859 0.909088L121.952 2.42424L124 6.51515L121.952 10.6061" stroke="black"/>
<path d="M120.739 9.69698L28.5568 101.818L14.608 115.758L120.739 9.69698ZM114.372 3.33334L22.1888 95.4545L8.24009 109.394L114.372 3.33334Z" stroke="black"/>
<path d="M11.5757 104.242L15.8209 108.485L20.0662 112.727L11.5757 104.242ZM7.93686 108.788L15.5177 116.364L7.93686 108.788ZM5.81423 115.758L8.54333 118.485L5.81423 115.758Z" stroke="black"/>
<path d="M12.8582 94.3383L13.6173 94.9108L13.1652 94.1682L10.6753 89.645L11.2425 89.0904L15.7247 91.6655L16.4707 92.1413L15.9044 91.3528L13.2664 87.1115L13.9421 86.4508L17.7195 92.7283L17.1067 93.3275L12.403 90.6607L11.9403 90.353L12.242 90.8182L14.8063 95.5768L14.1935 96.1759L7.94769 92.312L8.61996 91.6546L12.8582 94.3383ZM18.3295 85.8589C18.2154 85.9385 18.1011 86.0343 17.9868 86.1461C17.562 86.5615 17.4515 87.0233 17.6556 87.5314L20.2999 90.2051L19.6523 90.8385L15.9266 87.0715L16.5569 86.4553L16.9978 86.8802C16.8775 86.336 17.0121 85.8733 17.4019 85.4921C17.528 85.3689 17.6398 85.2915 17.7373 85.2601L18.3295 85.8589ZM22.786 87.7744L22.1382 88.4078L18.4127 84.6408L19.0605 84.0074L22.786 87.7744ZM17.372 83.6929C17.2687 83.5885 17.213 83.4695 17.2048 83.3359C17.199 83.2001 17.2591 83.0705 17.3853 82.9473C17.5113 82.824 17.6425 82.7664 17.7791 82.7744C17.9156 82.7825 18.0355 82.8387 18.1387 82.9432C18.242 83.0476 18.2954 83.1666 18.299 83.3002C18.3025 83.4337 18.2412 83.5621 18.1152 83.6853C17.9891 83.8086 17.8589 83.8673 17.7248 83.8616C17.5928 83.8536 17.4753 83.7974 17.372 83.6929ZM20.0771 81.2191L20.9792 82.1313L21.6865 81.4397L22.1789 81.9376L21.4716 82.6291L23.782 84.9652C23.9312 85.1161 24.0752 85.199 24.214 85.214C24.3505 85.2266 24.4945 85.1588 24.6463 85.0104C24.721 84.9374 24.8099 84.823 24.9131 84.6673L25.4295 85.1896C25.305 85.4026 25.1623 85.5879 25.0012 85.7454C24.7118 86.0284 24.4074 86.1547 24.0882 86.1245C23.769 86.0942 23.451 85.9189 23.1343 85.5986L20.8238 83.2625L20.1341 83.9369L19.6417 83.4391L20.3314 82.7646L19.4294 81.8525L20.0771 81.2191ZM27.8129 82.9962C27.2994 83.4983 26.7163 83.7398 26.0636 83.7205C25.4086 83.6989 24.8034 83.4073 24.2478 82.8456L24.1308 82.7273C23.7611 82.3536 23.503 81.9509 23.3561 81.5192C23.2094 81.083 23.1829 80.6569 23.2767 80.241C23.3705 79.8206 23.5679 79.4631 23.8691 79.1687C24.3616 78.6871 24.904 78.4741 25.4961 78.5297C26.0883 78.5853 26.6817 78.9136 27.2763 79.5148L27.5414 79.7828L24.9748 82.2923C25.3514 82.6546 25.7572 82.849 26.1922 82.8757C26.6273 82.8977 27.0058 82.7512 27.328 82.4363C27.5568 82.2126 27.7046 81.9767 27.7715 81.7287C27.8384 81.4806 27.8557 81.2218 27.8232 80.9522L28.5219 80.8717C28.6842 81.6672 28.4478 82.3754 27.8129 82.9962ZM24.3924 79.6979C24.1311 79.9535 24.0057 80.2632 24.0165 80.627C24.0251 80.9885 24.177 81.3603 24.4724 81.7426L26.3702 79.887L26.322 79.8383C25.9797 79.5293 25.6407 79.363 25.3052 79.3395C24.9675 79.3137 24.6632 79.4331 24.3924 79.6979ZM31.1922 77.5897C31.02 77.4156 30.8203 77.346 30.5931 77.381C30.366 77.4113 30.0535 77.5526 29.6554 77.8047C29.2598 78.0547 28.9169 78.2256 28.6267 78.3175C28.3389 78.4072 28.0817 78.4304 27.8553 78.3871C27.6311 78.3415 27.4271 78.2258 27.2435 78.0402C26.9382 77.7315 26.8107 77.3425 26.8609 76.8734C26.9135 76.4019 27.1441 75.9665 27.5525 75.5671C27.9821 75.1471 28.439 74.9173 28.9231 74.8776C29.4096 74.8356 29.8228 74.9864 30.1625 75.3299L29.5112 75.9667C29.3368 75.7903 29.1105 75.7124 28.8325 75.7331C28.557 75.7515 28.3047 75.8726 28.0759 76.0963C27.8402 76.3268 27.7063 76.5582 27.6742 76.7904C27.6421 77.0226 27.7076 77.2211 27.8706 77.3859C28.0244 77.5414 28.2022 77.5981 28.404 77.5561C28.6057 77.514 28.9032 77.3715 29.2966 77.1285C29.6921 76.8832 30.0397 76.7123 30.3392 76.6158C30.6386 76.5193 30.9062 76.4951 31.142 76.5431C31.3777 76.5865 31.5954 76.7091 31.7951 76.911C32.128 77.2476 32.26 77.6504 32.1912 78.1194C32.1201 78.5861 31.8687 79.0305 31.4368 79.4528C31.1334 79.7495 30.8122 79.9586 30.4732 80.08C30.1341 80.2015 29.804 80.2321 29.4827 80.1719C29.1615 80.1071 28.8907 79.9633 28.6703 79.7405L29.3181 79.1071C29.5432 79.3115 29.7994 79.3988 30.0868 79.369C30.3741 79.3346 30.6509 79.1873 30.917 78.9271C31.1621 78.6874 31.3099 78.4469 31.3606 78.2057C31.4113 77.9598 31.3551 77.7545 31.1922 77.5897ZM36.5192 73.4493C36.7503 73.2233 36.8834 72.9563 36.9184 72.6481C36.9534 72.34 36.8769 72.0723 36.689 71.8452L37.3017 71.246C37.5036 71.4733 37.632 71.7517 37.6871 72.0814C37.7422 72.411 37.7116 72.7468 37.5953 73.0888C37.4813 73.4285 37.2959 73.7239 37.0391 73.975C36.5233 74.4794 35.9437 74.7105 35.3005 74.6683C34.6573 74.6215 34.0419 74.3011 33.4542 73.7069L33.3475 73.599C32.9849 73.2322 32.73 72.8399 32.5831 72.4221C32.4361 72.0042 32.4106 71.5931 32.5066 71.1888C32.605 70.7822 32.8269 70.41 33.1723 70.0722C33.5972 69.6568 34.0748 69.4386 34.6051 69.4177C35.1378 69.3946 35.6131 69.5758 36.0312 69.9614L35.4185 70.5605C35.1587 70.3351 34.868 70.2267 34.5461 70.2356C34.2243 70.2398 33.9408 70.3617 33.6957 70.6014C33.3666 70.9232 33.228 71.2915 33.2801 71.7063C33.3322 72.1164 33.5786 72.5443 34.0193 72.99L34.1399 73.1118C34.5692 73.5458 34.9896 73.7922 35.4011 73.8509C35.8128 73.9095 36.1854 73.7757 36.5192 73.4493ZM39.908 71.033L39.2602 71.6663L33.9715 66.3188L34.6193 65.6854L39.908 71.033ZM42.5889 68.5486C42.0754 69.0507 41.4923 69.2922 40.8396 69.2729C40.1846 69.2513 39.5794 68.9597 39.0238 68.398L38.9068 68.2797C38.5373 67.906 38.279 67.5033 38.1322 67.0716C37.9854 66.6354 37.9589 66.2093 38.0527 65.7934C38.1465 65.373 38.344 65.0155 38.6451 64.7211C39.1377 64.2395 39.68 64.0265 40.2721 64.0821C40.8643 64.1377 41.4577 64.466 42.0523 65.0672L42.3174 65.3352L39.7508 67.8447C40.1274 68.207 40.5332 68.4014 40.9682 68.428C41.4033 68.4501 41.7818 68.3036 42.104 67.9887C42.3328 67.765 42.4806 67.5291 42.5475 67.2811C42.6144 67.033 42.6317 66.7742 42.5992 66.5046L43.2979 66.4241C43.4602 67.2196 43.2238 67.9278 42.5889 68.5486ZM39.1685 65.2503C38.9071 65.5059 38.7818 65.8156 38.7925 66.1794C38.8011 66.5409 38.953 66.9127 39.2484 67.295L41.1462 65.4394L41.098 65.3907C40.7557 65.0817 40.4168 64.9154 40.0813 64.8919C39.7435 64.8661 39.4392 64.9855 39.1685 65.2503ZM47.0895 64.0112C46.9786 63.9734 46.8174 63.8708 46.6058 63.7033C46.6123 64.3087 46.4067 64.8157 45.9888 65.2243C45.6153 65.5895 45.205 65.7852 44.7581 65.8113C44.311 65.8329 43.9281 65.6824 43.6089 65.3598C43.221 64.9676 43.0697 64.5174 43.1551 64.0094C43.2403 63.4968 43.5549 62.9746 44.0988 62.4428L44.7291 61.8266L44.4365 61.5307C44.2138 61.3055 43.9694 61.193 43.7031 61.1931C43.4345 61.1908 43.1684 61.3187 42.9046 61.5766C42.6736 61.8025 42.5372 62.05 42.4956 62.319C42.454 62.588 42.5146 62.8048 42.6776 62.9696L42.0263 63.6064C41.8405 63.4184 41.7279 63.1723 41.6888 62.8682C41.6497 62.5594 41.694 62.2421 41.8219 61.9163C41.9519 61.5882 42.1547 61.2895 42.4301 61.0202C42.8666 60.5934 43.3165 60.3681 43.7797 60.3443C44.2406 60.3182 44.6639 60.491 45.0497 60.8625L46.7645 62.5963C47.1066 62.9421 47.4229 63.1738 47.7136 63.2913L47.7687 63.347L47.0895 64.0112ZM45.529 64.5713C45.732 64.3727 45.873 64.1322 45.9518 63.8498C46.0305 63.5673 46.0281 63.3026 45.9445 63.0556L45.1802 62.2827L44.6725 62.7791C43.8788 63.5551 43.7104 64.174 44.1672 64.6359C44.3669 64.8379 44.5907 64.9295 44.8385 64.9108C45.0865 64.8922 45.3166 64.779 45.529 64.5713ZM45.5382 58.1181L46.0275 58.5711C45.9589 57.926 46.158 57.3752 46.6248 56.9187C47.4255 56.1358 48.2735 56.1901 49.1689 57.0815L51.6308 59.5708L50.983 60.2041L48.5177 57.7114C48.2467 57.4421 47.9852 57.303 47.7329 57.2939C47.483 57.2827 47.2284 57.4037 46.9694 57.657C46.7593 57.8624 46.6299 58.0985 46.5814 58.3651C46.5329 58.6317 46.5538 58.8989 46.6441 59.1666L49.2988 61.8509L48.651 62.4842L44.9255 58.7173L45.5382 58.1181ZM54.2487 57.148C53.7351 57.6501 53.152 57.8916 52.4994 57.8723C51.8443 57.8507 51.2391 57.5591 50.6836 56.9974L50.5665 56.8791C50.1969 56.5054 49.9388 56.1027 49.7919 55.671C49.6451 55.2348 49.6187 54.8087 49.7124 54.3928C49.8062 53.9724 50.0037 53.6149 50.3049 53.3205C50.7974 52.8389 51.3398 52.6259 51.9319 52.6815C52.5241 52.7371 53.1175 53.0654 53.712 53.6666L53.9772 53.9346L51.4106 56.4441C51.7872 56.8064 52.193 57.0008 52.628 57.0275C53.0631 57.0495 53.4416 56.903 53.7638 56.5881C53.9926 56.3644 54.1404 56.1285 54.2073 55.8805C54.2742 55.6324 54.2915 55.3736 54.259 55.104L54.9576 55.0235C55.1199 55.819 54.8836 56.5272 54.2487 57.148ZM50.8282 53.8497C50.5667 54.1053 50.4414 54.415 50.4523 54.7788C50.4608 55.1403 50.6128 55.5121 50.9082 55.8944L52.806 54.0388L52.7578 53.9901C52.4155 53.6811 52.0765 53.5148 51.741 53.4913C51.4033 53.4655 51.099 53.5849 50.8282 53.8497ZM55.0875 49.9179C54.9733 49.9976 54.8591 50.0933 54.7447 50.2051C54.3199 50.6205 54.2095 51.0823 54.4135 51.5904L57.058 54.2642L56.4102 54.8975L52.6847 51.1306L53.3149 50.5143L53.7558 50.9392C53.6354 50.395 53.7701 49.9323 54.1599 49.5511C54.286 49.4279 54.3978 49.3505 54.4952 49.3191L55.0875 49.9179Z" fill="black"/>
<path d="M82.8244 62.4396L85.2206 60.0576L85.7657 60.5997L82.6993 63.6481L77.644 58.6204L78.3142 57.9541L82.8244 62.4396ZM87.2487 59.1256L86.6062 59.7642L82.8494 56.028L83.4919 55.3894L87.2487 59.1256ZM81.8009 55.0888C81.6967 54.9852 81.6401 54.8667 81.6308 54.7332C81.6239 54.5974 81.6829 54.4673 81.8079 54.343C81.9329 54.2187 82.0638 54.1601 82.2003 54.167C82.3369 54.1739 82.4573 54.2292 82.5614 54.3328C82.6656 54.4363 82.72 54.5549 82.7246 54.6884C82.7293 54.8219 82.669 54.9508 82.544 55.0751C82.419 55.1994 82.2893 55.2592 82.1551 55.2546C82.0231 55.2476 81.9051 55.1924 81.8009 55.0888ZM88.6484 56.0011L86.6938 52.2064L87.3503 51.5539L89.7596 56.6296L89.2699 57.1163L84.1517 54.7334L84.8081 54.081L88.6484 56.0011ZM93.3053 53.2429C92.796 53.7492 92.2149 53.9955 91.562 53.9816C90.9069 53.9654 90.2992 53.6788 89.7391 53.1217L89.6211 53.0043C89.2484 52.6336 88.9869 52.2331 88.8364 51.8026C88.686 51.3676 88.6559 50.9418 88.7463 50.5251C88.8366 50.1039 89.0311 49.7449 89.3297 49.448C89.8183 48.9623 90.3588 48.7449 90.9515 48.7956C91.544 48.8463 92.1401 49.1698 92.7396 49.766L93.007 50.0319L90.4615 52.5624C90.841 52.9215 91.2484 53.1126 91.6836 53.1357C92.1189 53.1541 92.4963 53.0046 92.8157 52.687C93.0426 52.4614 93.1885 52.2243 93.2534 51.9758C93.3181 51.7272 93.3332 51.4682 93.2985 51.1989L93.9965 51.1127C94.1655 51.9068 93.935 52.6169 93.3053 53.2429ZM89.8575 49.9728C89.5982 50.2306 89.4755 50.5413 89.4893 50.905C89.5009 51.2664 89.6559 51.637 89.9545 52.0168L91.8368 50.1457L91.7881 50.0973C91.4433 49.7912 91.103 49.6277 90.7673 49.607C90.4294 49.5839 90.1261 49.7059 89.8575 49.9728ZM96.6394 47.8088C96.4659 47.6361 96.2656 47.5682 96.0387 47.605C95.8118 47.6372 95.5005 47.781 95.1046 48.0365C94.711 48.2896 94.3695 48.4634 94.0802 48.5577C93.793 48.6497 93.5361 48.675 93.3093 48.6336C93.0847 48.5898 92.8798 48.4759 92.6947 48.2917C92.3868 47.9855 92.2561 47.5977 92.3025 47.1281C92.3511 46.6562 92.578 46.2189 92.9831 45.8162C93.4091 45.3927 93.864 45.1591 94.3479 45.1154C94.8341 45.0694 95.2484 45.2168 95.591 45.5575L94.9451 46.1996C94.7691 46.0247 94.5423 45.9487 94.2645 45.9717C93.9889 45.9924 93.7378 46.1155 93.5109 46.341C93.2771 46.5735 93.1451 46.806 93.115 47.0384C93.0849 47.2709 93.152 47.4689 93.3163 47.6323C93.4714 47.7865 93.6496 47.8418 93.8511 47.7981C94.0524 47.7544 94.3488 47.6094 94.74 47.3632C95.1336 47.1146 95.4797 46.9409 95.7783 46.8419C96.077 46.743 96.3444 46.7165 96.5805 46.7626C96.8167 46.8041 97.0354 46.9249 97.2367 47.1252C97.5723 47.459 97.7077 47.8607 97.6429 48.3302C97.5757 48.7975 97.328 49.244 96.8996 49.6698C96.5987 49.969 96.2792 50.1807 95.9412 50.305C95.6031 50.4292 95.2733 50.4626 94.9515 50.405C94.6298 50.3428 94.3578 50.2012 94.1356 49.9802L94.778 49.3415C95.0048 49.5441 95.2618 49.6293 95.5488 49.5971C95.836 49.5603 96.1114 49.4107 96.3753 49.1484C96.6184 48.9067 96.7644 48.665 96.8129 48.4234C96.8616 48.1771 96.8038 47.9722 96.6394 47.8088ZM101.578 44.8814L100.935 45.5201L95.602 40.2162L96.2445 39.5776L101.578 44.8814ZM100.526 42.1226C100.158 41.7566 99.8985 41.3561 99.748 40.921C99.5999 40.4837 99.5745 40.0578 99.6718 39.6435C99.7714 39.2269 99.9867 38.8541 100.318 38.5249C100.829 38.0163 101.42 37.7816 102.089 37.8208C102.76 37.8577 103.39 38.1685 103.978 38.7532L104.023 38.7981C104.389 39.1618 104.647 39.5589 104.797 39.9894C104.948 40.4152 104.973 40.8387 104.873 41.26C104.776 41.6789 104.558 42.0563 104.22 42.3924C103.711 42.8987 103.121 43.1334 102.449 43.0965C101.78 43.0573 101.154 42.7476 100.571 42.1675L100.526 42.1226ZM101.248 41.5565C101.665 41.9709 102.095 42.208 102.54 42.2679C102.986 42.3255 103.372 42.1932 103.696 41.8709C104.023 41.5464 104.155 41.1621 104.092 40.7178C104.027 40.2712 103.765 39.8189 103.304 39.3608C102.892 38.9511 102.46 38.7174 102.009 38.6598C101.557 38.5976 101.17 38.7276 100.845 39.0498C100.528 39.3651 100.399 39.7449 100.456 40.1891C100.514 40.6334 100.778 41.0892 101.248 41.5565ZM103.516 35.4835L104.009 35.9324C103.935 35.2879 104.13 34.7355 104.593 34.2752C105.387 33.4858 106.235 33.533 107.138 34.417L109.62 36.8859L108.978 37.5246L106.492 35.0522C106.219 34.7852 105.956 34.6482 105.704 34.6413C105.454 34.632 105.2 34.7552 104.944 35.0106C104.735 35.2178 104.608 35.4548 104.561 35.7218C104.515 35.9888 104.538 36.2559 104.631 36.5229L107.308 39.1852L106.665 39.8238L102.909 36.0876L103.516 35.4835ZM108.527 34.1755C107.942 33.5931 107.612 32.9957 107.537 32.3834C107.461 31.7689 107.647 31.2395 108.093 30.7953C108.552 30.3396 109.072 30.1451 109.652 30.2119L109.267 29.7665L109.854 29.1831L113.52 32.8295C114.007 33.3129 114.245 33.8378 114.235 34.404C114.228 34.9679 113.982 35.4916 113.496 35.9749C113.225 36.2442 112.902 36.4501 112.527 36.5928C112.152 36.7355 111.796 36.7746 111.458 36.7101L111.405 35.9954C112.022 36.0599 112.529 35.8942 112.927 35.4983C113.239 35.1876 113.395 34.8585 113.392 34.5109C113.392 34.1611 113.233 33.8273 112.913 33.5096L112.59 33.1885C112.629 33.7386 112.427 34.2346 111.983 34.6765C111.542 35.1138 111.009 35.2921 110.381 35.2115C109.756 35.1286 109.138 34.7832 108.527 34.1755ZM109.246 33.6059C109.669 34.0271 110.09 34.2723 110.506 34.3414C110.921 34.4082 111.285 34.2863 111.596 33.9756C112.002 33.5728 112.115 33.094 111.937 32.5393L110.222 30.8335C109.666 30.6723 109.192 30.7873 108.798 31.1786C108.486 31.4893 108.363 31.853 108.43 32.2696C108.497 32.6862 108.769 33.1317 109.246 33.6059ZM116.212 30.4716C115.703 30.978 115.121 31.2242 114.469 31.2103C113.814 31.1941 113.206 30.9075 112.645 30.3504L112.528 30.233C112.156 29.8623 111.893 29.4618 111.743 29.0314C111.592 28.5963 111.562 28.1705 111.653 27.7539C111.743 27.3326 111.938 26.9736 112.236 26.6767C112.725 26.1911 113.266 25.9736 113.858 26.0243C114.451 26.075 115.047 26.3985 115.646 26.9947L115.914 27.2606L113.368 29.7911C113.748 30.1502 114.155 30.3413 114.59 30.3644C115.026 30.3829 115.403 30.2333 115.723 29.9157C115.949 29.6901 116.095 29.4531 116.16 29.2045C116.225 28.9559 116.24 28.6969 116.206 28.4276L116.904 28.3414C117.073 29.1355 116.842 29.8456 116.212 30.4716ZM112.764 27.2016C112.505 27.4593 112.382 27.7701 112.396 28.1337C112.408 28.4951 112.563 28.8657 112.862 29.2455L114.743 27.3744L114.695 27.3261C114.35 27.0199 114.01 26.8564 113.674 26.8357C113.336 26.8126 113.033 26.9346 112.764 27.2016ZM116.991 23.2349C116.877 23.3155 116.764 23.4121 116.65 23.5249C116.229 23.9438 116.122 24.4064 116.33 24.9128L118.998 27.5648L118.355 28.2035L114.598 24.4672L115.223 23.8458L115.668 24.2671C115.543 23.7239 115.674 23.2601 116.06 22.8757C116.186 22.7514 116.296 22.6732 116.394 22.641L116.991 23.2349Z" fill="black"/>
<path d="M130.864 50.864C133.104 50.864 134.736 51.304 135.76 52.184C136.784 53.064 137.296 54.304 137.296 55.904C137.296 56.848 137.08 57.736 136.648 58.568C136.232 59.384 135.52 60.048 134.512 60.56C133.52 61.072 132.168 61.328 130.456 61.328H128.488V68H126.328V50.864H130.864ZM130.672 52.712H128.488V59.48H130.216C131.848 59.48 133.064 59.216 133.864 58.688C134.664 58.16 135.064 57.264 135.064 56C135.064 54.896 134.712 54.072 134.008 53.528C133.304 52.984 132.192 52.712 130.672 52.712ZM145.539 54.896C146.643 54.896 147.587 55.136 148.371 55.616C149.171 56.096 149.779 56.776 150.195 57.656C150.627 58.52 150.843 59.536 150.843 60.704V61.976H142.035C142.067 63.432 142.435 64.544 143.139 65.312C143.859 66.064 144.859 66.44 146.139 66.44C146.955 66.44 147.675 66.368 148.299 66.224C148.939 66.064 149.595 65.84 150.267 65.552V67.4C149.611 67.688 148.963 67.896 148.323 68.024C147.683 68.168 146.923 68.24 146.043 68.24C144.827 68.24 143.747 67.992 142.803 67.496C141.875 67 141.147 66.264 140.619 65.288C140.107 64.296 139.851 63.088 139.851 61.664C139.851 60.256 140.083 59.048 140.547 58.04C141.027 57.032 141.691 56.256 142.539 55.712C143.403 55.168 144.403 54.896 145.539 54.896ZM145.515 56.624C144.507 56.624 143.707 56.952 143.115 57.608C142.539 58.248 142.195 59.144 142.083 60.296H148.635C148.619 59.208 148.363 58.328 147.867 57.656C147.371 56.968 146.587 56.624 145.515 56.624ZM160.31 54.896C161.846 54.896 163.006 55.272 163.79 56.024C164.574 56.76 164.966 57.96 164.966 59.624V68H162.878V59.768C162.878 57.704 161.918 56.672 159.998 56.672C158.574 56.672 157.59 57.072 157.046 57.872C156.502 58.672 156.23 59.824 156.23 61.328V68H154.118V55.136H155.822L156.134 56.888H156.254C156.67 56.216 157.246 55.72 157.982 55.4C158.718 55.064 159.494 54.896 160.31 54.896ZM177.33 64.448C177.33 65.696 176.866 66.64 175.938 67.28C175.01 67.92 173.762 68.24 172.194 68.24C171.298 68.24 170.522 68.168 169.866 68.024C169.226 67.88 168.658 67.68 168.162 67.424V65.504C168.674 65.76 169.29 66 170.01 66.224C170.746 66.432 171.49 66.536 172.242 66.536C173.314 66.536 174.09 66.368 174.57 66.032C175.05 65.68 175.29 65.216 175.29 64.64C175.29 64.32 175.202 64.032 175.026 63.776C174.85 63.52 174.53 63.264 174.066 63.008C173.618 62.752 172.97 62.464 172.122 62.144C171.29 61.824 170.578 61.504 169.986 61.184C169.394 60.864 168.938 60.48 168.618 60.032C168.298 59.584 168.138 59.008 168.138 58.304C168.138 57.216 168.578 56.376 169.458 55.784C170.354 55.192 171.522 54.896 172.962 54.896C173.746 54.896 174.474 54.976 175.146 55.136C175.834 55.28 176.474 55.488 177.066 55.76L176.346 57.44C175.802 57.216 175.234 57.024 174.642 56.864C174.05 56.704 173.442 56.624 172.818 56.624C171.954 56.624 171.29 56.768 170.826 57.056C170.378 57.328 170.154 57.704 170.154 58.184C170.154 58.536 170.258 58.84 170.466 59.096C170.674 59.336 171.018 59.576 171.498 59.816C171.994 60.04 172.65 60.312 173.466 60.632C174.282 60.936 174.978 61.248 175.554 61.568C176.13 61.888 176.57 62.28 176.874 62.744C177.178 63.192 177.33 63.76 177.33 64.448ZM194.75 52.52C192.91 52.52 191.462 53.136 190.406 54.368C189.35 55.6 188.822 57.288 188.822 59.432C188.822 61.56 189.31 63.248 190.286 64.496C191.278 65.728 192.758 66.344 194.726 66.344C195.478 66.344 196.19 66.28 196.862 66.152C197.534 66.024 198.19 65.864 198.83 65.672V67.544C198.19 67.784 197.526 67.96 196.838 68.072C196.166 68.184 195.358 68.24 194.414 68.24C192.67 68.24 191.214 67.88 190.046 67.16C188.878 66.44 187.998 65.416 187.406 64.088C186.83 62.76 186.542 61.2 186.542 59.408C186.542 57.68 186.854 56.16 187.478 54.848C188.118 53.52 189.054 52.488 190.286 51.752C191.518 51 193.014 50.624 194.774 50.624C196.582 50.624 198.158 50.96 199.502 51.632L198.638 53.456C198.11 53.216 197.518 53 196.862 52.808C196.222 52.616 195.518 52.52 194.75 52.52ZM213.466 61.544C213.466 63.672 212.922 65.32 211.834 66.488C210.762 67.656 209.306 68.24 207.466 68.24C206.33 68.24 205.314 67.984 204.418 67.472C203.538 66.944 202.842 66.184 202.33 65.192C201.818 64.184 201.562 62.968 201.562 61.544C201.562 59.416 202.098 57.776 203.17 56.624C204.242 55.472 205.698 54.896 207.538 54.896C208.706 54.896 209.73 55.16 210.61 55.688C211.506 56.2 212.202 56.952 212.698 57.944C213.21 58.92 213.466 60.12 213.466 61.544ZM203.746 61.544C203.746 63.064 204.042 64.272 204.634 65.168C205.242 66.048 206.202 66.488 207.514 66.488C208.81 66.488 209.762 66.048 210.37 65.168C210.978 64.272 211.282 63.064 211.282 61.544C211.282 60.024 210.978 58.832 210.37 57.968C209.762 57.104 208.802 56.672 207.49 56.672C206.178 56.672 205.226 57.104 204.634 57.968C204.042 58.832 203.746 60.024 203.746 61.544ZM230.925 54.896C232.381 54.896 233.469 55.272 234.189 56.024C234.909 56.76 235.269 57.96 235.269 59.624V68H233.181V59.72C233.181 57.688 232.309 56.672 230.565 56.672C229.317 56.672 228.421 57.032 227.877 57.752C227.349 58.472 227.085 59.52 227.085 60.896V68H224.997V59.72C224.997 57.688 224.117 56.672 222.357 56.672C221.061 56.672 220.165 57.072 219.669 57.872C219.173 58.672 218.925 59.824 218.925 61.328V68H216.813V55.136H218.517L218.829 56.888H218.949C219.349 56.216 219.885 55.72 220.557 55.4C221.245 55.064 221.973 54.896 222.741 54.896C224.757 54.896 226.069 55.616 226.677 57.056H226.797C227.229 56.32 227.813 55.776 228.549 55.424C229.301 55.072 230.093 54.896 230.925 54.896ZM245.363 54.896C246.947 54.896 248.219 55.448 249.179 56.552C250.155 57.656 250.643 59.32 250.643 61.544C250.643 63.736 250.155 65.4 249.179 66.536C248.219 67.672 246.939 68.24 245.339 68.24C244.347 68.24 243.523 68.056 242.867 67.688C242.227 67.304 241.723 66.864 241.355 66.368H241.211C241.243 66.64 241.275 66.984 241.307 67.4C241.339 67.816 241.355 68.176 241.355 68.48V73.76H239.243V55.136H240.971L241.259 56.888H241.355C241.739 56.328 242.243 55.856 242.867 55.472C243.491 55.088 244.323 54.896 245.363 54.896ZM244.979 56.672C243.667 56.672 242.739 57.04 242.195 57.776C241.667 58.512 241.387 59.632 241.355 61.136V61.544C241.355 63.128 241.611 64.352 242.123 65.216C242.651 66.064 243.619 66.488 245.027 66.488C245.811 66.488 246.451 66.272 246.947 65.84C247.459 65.408 247.835 64.824 248.075 64.088C248.331 63.336 248.459 62.48 248.459 61.52C248.459 60.048 248.171 58.872 247.595 57.992C247.035 57.112 246.163 56.672 244.979 56.672ZM265.193 61.544C265.193 63.672 264.649 65.32 263.561 66.488C262.489 67.656 261.033 68.24 259.193 68.24C258.057 68.24 257.041 67.984 256.145 67.472C255.265 66.944 254.569 66.184 254.057 65.192C253.545 64.184 253.289 62.968 253.289 61.544C253.289 59.416 253.825 57.776 254.897 56.624C255.969 55.472 257.425 54.896 259.265 54.896C260.433 54.896 261.457 55.16 262.337 55.688C263.233 56.2 263.929 56.952 264.425 57.944C264.937 58.92 265.193 60.12 265.193 61.544ZM255.473 61.544C255.473 63.064 255.769 64.272 256.361 65.168C256.969 66.048 257.929 66.488 259.241 66.488C260.537 66.488 261.489 66.048 262.097 65.168C262.705 64.272 263.009 63.064 263.009 61.544C263.009 60.024 262.705 58.832 262.097 57.968C261.489 57.104 260.529 56.672 259.217 56.672C257.905 56.672 256.953 57.104 256.361 57.968C255.769 58.832 255.473 60.024 255.473 61.544ZM279.292 55.136V68H277.564L277.252 66.296H277.156C276.74 66.968 276.164 67.464 275.428 67.784C274.692 68.088 273.908 68.24 273.076 68.24C271.524 68.24 270.356 67.872 269.572 67.136C268.788 66.384 268.396 65.192 268.396 63.56V55.136H270.532V63.416C270.532 65.464 271.484 66.488 273.388 66.488C274.812 66.488 275.796 66.088 276.34 65.288C276.9 64.488 277.18 63.336 277.18 61.832V55.136H279.292ZM289.568 54.896C291.104 54.896 292.264 55.272 293.048 56.024C293.832 56.76 294.224 57.96 294.224 59.624V68H292.136V59.768C292.136 57.704 291.176 56.672 289.256 56.672C287.832 56.672 286.848 57.072 286.304 57.872C285.76 58.672 285.488 59.824 285.488 61.328V68H283.376V55.136H285.08L285.392 56.888H285.512C285.928 56.216 286.504 55.72 287.24 55.4C287.976 55.064 288.752 54.896 289.568 54.896ZM302.772 68.24C301.172 68.24 299.892 67.688 298.932 66.584C297.972 65.464 297.492 63.8 297.492 61.592C297.492 59.384 297.972 57.72 298.932 56.6C299.908 55.464 301.196 54.896 302.796 54.896C303.788 54.896 304.596 55.08 305.22 55.448C305.86 55.816 306.38 56.264 306.78 56.792H306.924C306.908 56.584 306.876 56.28 306.828 55.88C306.796 55.464 306.78 55.136 306.78 54.896V49.76H308.892V68H307.188L306.876 66.272H306.78C306.396 66.816 305.884 67.28 305.244 67.664C304.604 68.048 303.78 68.24 302.772 68.24ZM303.108 66.488C304.468 66.488 305.42 66.12 305.964 65.384C306.524 64.632 306.804 63.504 306.804 62V61.616C306.804 60.016 306.54 58.792 306.012 57.944C305.484 57.08 304.508 56.648 303.084 56.648C301.948 56.648 301.092 57.104 300.516 58.016C299.956 58.912 299.676 60.12 299.676 61.64C299.676 63.176 299.956 64.368 300.516 65.216C301.092 66.064 301.956 66.488 303.108 66.488Z" fill="black"/>
</g>
<defs>
<filter id="filter0_d" x="0.171804" y="0.375931" width="312.72" height="127.751" filterUnits="userSpaceOnUse" color-interpolation-filters="sRGB">
<feFlood flood-opacity="0" result="BackgroundImageFix"/>
<feColorMatrix in="SourceAlpha" type="matrix" values="0 0 0 0 0 0 0 0 0 0 0 0 0 0 0 0 0 0 127 0"/>
<feOffset dy="4"/>
<feGaussianBlur stdDeviation="2"/>
<feColorMatrix type="matrix" values="0 0 0 0 0 0 0 0 0 0 0 0 0 0 0 0 0 0 0.25 0"/>
<feBlend mode="normal" in2="BackgroundImageFix" result="effect1_dropShadow"/>
<feBlend mode="normal" in="SourceGraphic" in2="effect1_dropShadow" result="shape"/>
</filter>
</defs>
</svg>

